<svg width="34" height="35" viewBox="0 0 34 35" fill="none" xmlns="http://www.w3.org/2000/svg">
<path d="M20.6862 3.73395C20.6862 4.71735 20.2956 5.66047 19.6002 6.35583C18.9048 7.0512 17.9617 7.44185 16.9783 7.44185C15.9949 7.44185 15.0518 7.0512 14.3564 6.35583C13.661 5.66047 13.2704 4.71735 13.2704 3.73395" stroke="black" stroke-width="1.5" stroke-miterlimit="10"/>
<path d="M8.01023 18.244L3.5639 17.2119C3.43844 17.1819 3.32033 17.127 3.21666 17.0502C3.11298 16.9735 3.0259 16.8766 2.96063 16.7654C2.89536 16.6541 2.85327 16.5308 2.83687 16.4029C2.82047 16.2749 2.8301 16.145 2.8652 16.0209L5.31464 7.75947C5.37564 7.53346 5.51673 7.33733 5.71164 7.20765L12.1787 3.88085C12.3338 3.78095 12.5142 3.72724 12.6987 3.72601H21.246C21.4293 3.72712 21.6084 3.78086 21.7621 3.88085L28.233 7.20765C28.4295 7.33568 28.5711 7.53249 28.63 7.75947L31.0834 16.0209C31.1185 16.145 31.1282 16.2749 31.1118 16.4029C31.0954 16.5308 31.0533 16.6541 30.988 16.7654C30.9227 16.8766 30.8357 16.9735 30.732 17.0502C30.6283 17.127 30.5102 17.1819 30.3847 17.2119L25.9384 18.244" stroke="black" stroke-width="1.5" stroke-miterlimit="10"/>
<path d="M8.01026 15.2626V27.2082C8.00886 28.0191 8.31773 28.7999 8.87356 29.3904C9.42938 29.9809 10.1901 30.3365 10.9996 30.3841V30.3841C12.9136 30.7321 14.8543 30.9128 16.7997 30.924H17.1609C19.105 30.9127 21.0444 30.7321 22.957 30.3841C23.7673 30.3374 24.529 29.9823 25.0856 29.3917C25.6423 28.8011 25.9517 28.0198 25.9504 27.2082V15.2626" stroke="black" stroke-width="1.5" stroke-miterlimit="10" stroke-linecap="round"/>
</svg>
